solid JSCAD
facet normal -1 0 0
outer loop
vertex 0 23.333440000000003 1.0001533333333334
vertex 0 10.000113333333333 1.9998333333333336
vertex 0 60.00020666666667 1.9998333333333336
endloop
endfacet
facet normal -1 0 0
outer loop
vertex 0 23.333440000000003 1.0001533333333334
vertex 0 60.00020666666667 1.9998333333333336
vertex 0 60.00020666666667 0
endloop
endfacet
facet normal -1 0 0
outer loop
vertex 0 23.333440000000003 1.0001533333333334
vertex 0 60.00020666666667 0
vertex 0 10.000113333333333 0
endloop
endfacet
facet normal -1 0 0
outer loop
vertex 0 23.333440000000003 1.0001533333333334
vertex 0 10.000113333333333 0
vertex 0 0 0
endloop
endfacet
facet normal -1 0 0
outer loop
vertex 0 23.333440000000003 1.0001533333333334
vertex 0 0 0
vertex 0 0 1.9998333333333336
endloop
endfacet
facet normal -1 0 0
outer loop
vertex 0 23.333440000000003 1.0001533333333334
vertex 0 0 1.9998333333333336
vertex 0 10.000113333333333 1.9998333333333336
endloop
endfacet
facet normal 1 0 0
outer loop
vertex 79.99996 0 0
vertex 79.99996 10.000113333333333 0
vertex 79.99996 10.000113333333333 1.9998333333333336
endloop
endfacet
facet normal 1 0 0
outer loop
vertex 79.99996 0 0
vertex 79.99996 10.000113333333333 1.9998333333333336
vertex 79.99996 0 1.9998333333333336
endloop
endfacet
facet normal 0 -1 0
outer loop
vertex 0 0 0
vertex 79.99996 0 0
vertex 79.99996 0 1.9998333333333336
endloop
endfacet
facet normal 0 -1 0
outer loop
vertex 0 0 0
vertex 79.99996 0 1.9998333333333336
vertex 0 0 1.9998333333333336
endloop
endfacet
facet normal 0 0 -1
outer loop
vertex 10.000113333333333 60.00020666666667 0
vertex 10.000113333333333 10.000113333333333 0
vertex 0 10.000113333333333 0
endloop
endfacet
facet normal 0 0 -1
outer loop
vertex 10.000113333333333 60.00020666666667 0
vertex 0 10.000113333333333 0
vertex 0 60.00020666666667 0
endloop
endfacet
facet normal 0 0 -1
outer loop
vertex 34.00000666666667 5.999973333333334 0
vertex 10.000113333333333 10.000113333333333 0
vertex 79.99996 10.000113333333333 0
endloop
endfacet
facet normal 0 0 -1
outer loop
vertex 34.00000666666667 5.999973333333334 0
vertex 79.99996 10.000113333333333 0
vertex 79.99996 0 0
endloop
endfacet
facet normal 0 0 -0.9999999999999999
outer loop
vertex 34.00000666666667 5.999973333333334 0
vertex 79.99996 0 0
vertex 0 0 0
endloop
endfacet
facet normal 0 0 -1
outer loop
vertex 34.00000666666667 5.999973333333334 0
vertex 0 0 0
vertex 0 10.000113333333333 0
endloop
endfacet
facet normal 0 0 -1
outer loop
vertex 34.00000666666667 5.999973333333334 0
vertex 0 10.000113333333333 0
vertex 10.000113333333333 10.000113333333333 0
endloop
endfacet
facet normal 0 0 1
outer loop
vertex 0 60.00020666666667 1.9998333333333336
vertex 0 10.000113333333333 1.9998333333333336
vertex 10.000113333333333 10.000113333333333 1.9998333333333336
endloop
endfacet
facet normal 0 0 1
outer loop
vertex 0 60.00020666666667 1.9998333333333336
vertex 10.000113333333333 10.000113333333333 1.9998333333333336
vertex 10.000113333333333 60.00020666666667 1.9998333333333336
endloop
endfacet
facet normal 0 0 1
outer loop
vertex 34.00000666666667 5.999973333333334 1.9998333333333336
vertex 10.000113333333333 10.000113333333333 1.9998333333333336
vertex 0 10.000113333333333 1.9998333333333336
endloop
endfacet
facet normal 0 0 1
outer loop
vertex 34.00000666666667 5.999973333333334 1.9998333333333336
vertex 0 10.000113333333333 1.9998333333333336
vertex 0 0 1.9998333333333336
endloop
endfacet
facet normal 0 0 0.9999999999999999
outer loop
vertex 34.00000666666667 5.999973333333334 1.9998333333333336
vertex 0 0 1.9998333333333336
vertex 79.99996 0 1.9998333333333336
endloop
endfacet
facet normal 0 0 1
outer loop
vertex 34.00000666666667 5.999973333333334 1.9998333333333336
vertex 79.99996 0 1.9998333333333336
vertex 79.99996 10.000113333333333 1.9998333333333336
endloop
endfacet
facet normal 0 0 1
outer loop
vertex 34.00000666666667 5.999973333333334 1.9998333333333336
vertex 79.99996 10.000113333333333 1.9998333333333336
vertex 10.000113333333333 10.000113333333333 1.9998333333333336
endloop
endfacet
facet normal 0 1 0
outer loop
vertex 10.000113333333333 10.000113333333333 1.9998333333333336
vertex 79.99996 10.000113333333333 1.9998333333333336
vertex 79.99996 10.000113333333333 0
endloop
endfacet
facet normal 0 1 0
outer loop
vertex 10.000113333333333 10.000113333333333 1.9998333333333336
vertex 79.99996 10.000113333333333 0
vertex 10.000113333333333 10.000113333333333 0
endloop
endfacet
facet normal 0 1 0
outer loop
vertex 0 60.00020666666667 0
vertex 0 60.00020666666667 1.9998333333333336
vertex 10.000113333333333 60.00020666666667 1.9998333333333336
endloop
endfacet
facet normal 0 1 0
outer loop
vertex 0 60.00020666666667 0
vertex 10.000113333333333 60.00020666666667 1.9998333333333336
vertex 10.000113333333333 60.00020666666667 0
endloop
endfacet
facet normal 1 0 0
outer loop
vertex 10.000113333333333 10.000113333333333 0
vertex 10.000113333333333 60.00020666666667 0
vertex 10.000113333333333 60.00020666666667 1.9998333333333336
endloop
endfacet
facet normal 1 0 0
outer loop
vertex 10.000113333333333 10.000113333333333 0
vertex 10.000113333333333 60.00020666666667 1.9998333333333336
vertex 10.000113333333333 10.000113333333333 1.9998333333333336
endloop
endfacet
endsolid JSCAD
